<svg xmlns="http://www.w3.org/2000/svg" xmlns:xlink="http://www.w3.org/1999/xlink" version="1.1" width="256" height="256" viewBox="0 0 256 256" xml:space="preserve">
<desc>Created with Fabric.js 1.7.22</desc>
<defs>
</defs>
<g transform="translate(128 128) scale(0.72 0.72)" style="">
	<g style="stroke: none; stroke-width: 0; stroke-dasharray: none; stroke-linecap: butt; stroke-linejoin: miter; stroke-miterlimit: 10; fill: rgb(220,220,220); fill-rule: nonzero; opacity: 1;" transform="translate(-175.05 -175.05000000000004) scale(3.89 3.89)" >
	<path d="M 71.326 90 H 18.674 C 8.361 90 0 81.639 0 71.326 V 18.674 C 0 8.361 8.361 0 18.674 0 h 52.652 C 81.639 0 90 8.361 90 18.674 v 52.652 C 90 81.639 81.639 90 71.326 90 z" style="stroke: none; stroke-width: 1; stroke-dasharray: none; stroke-linecap: butt; stroke-linejoin: miter; stroke-miterlimit: 10; fill: rgb(220,220,220); fill-rule: nonzero; opacity: 1;" transform=" matrix(1 0 0 1 0 0) " stroke-linecap="round" />
</g>
	<g style="stroke: none; stroke-width: 0; stroke-dasharray: none; stroke-linecap: butt; stroke-linejoin: miter; stroke-miterlimit: 10; fill: none; fill-rule: nonzero; opacity: 1;" transform="translate(-130.05 -130.05000000000004) scale(2.89 2.89)" >
	<path d="M 45 0 C 20.187 0 0 20.187 0 45 c 0 24.813 20.187 45 45 45 c 24.813 0 45 -20.187 45 -45 C 90 20.187 69.813 0 45 0 z M 6.127 48 h 13.509 c 0.184 5.174 0.836 10.088 1.892 14.604 H 10.216 C 7.956 58.156 6.526 53.221 6.127 48 z M 48 21.395 V 6.491 c 4.948 1.618 9.338 7.151 12.332 14.904 H 48 z M 62.249 27.395 c 1.161 4.47 1.901 9.412 2.109 14.605 H 48 V 27.395 H 62.249 z M 42 6.491 v 14.904 H 29.667 C 32.662 13.642 37.052 8.109 42 6.491 z M 42 27.395 V 42 H 25.642 c 0.208 -5.193 0.948 -10.135 2.109 -14.605 H 42 z M 19.636 42 H 6.127 c 0.4 -5.222 1.829 -10.157 4.09 -14.605 h 11.311 C 20.471 31.912 19.82 36.826 19.636 42 z M 25.642 48 H 42 v 14.604 H 27.751 C 26.59 58.135 25.85 53.193 25.642 48 z M 42 68.604 v 14.904 c -4.948 -1.618 -9.338 -7.151 -12.333 -14.904 H 42 z M 48 83.509 V 68.604 h 12.333 C 57.338 76.358 52.948 81.891 48 83.509 z M 48 62.604 V 48 h 16.358 c -0.208 5.193 -0.948 10.135 -2.109 14.604 H 48 z M 70.364 48 h 13.509 c -0.399 5.221 -1.829 10.156 -4.09 14.604 H 68.472 C 69.529 58.088 70.18 53.174 70.364 48 z M 70.364 42 c -0.184 -5.174 -0.836 -10.088 -1.892 -14.605 h 11.311 c 2.261 4.448 3.69 9.383 4.09 14.605 H 70.364 z M 76.018 21.395 h -9.261 c -1.604 -4.692 -3.685 -8.79 -6.126 -12.115 C 66.733 11.961 72.022 16.157 76.018 21.395 z M 29.37 9.28 c -2.442 3.325 -4.522 7.423 -6.126 12.115 h -9.261 C 17.978 16.157 23.267 11.961 29.37 9.28 z M 13.982 68.604 h 9.261 c 1.604 4.693 3.685 8.79 6.126 12.116 C 23.267 78.039 17.978 73.843 13.982 68.604 z M 60.63 80.72 c 2.442 -3.326 4.522 -7.423 6.127 -12.116 h 9.261 C 72.022 73.843 66.733 78.039 60.63 80.72 z" style="stroke: none; stroke-width: 1; stroke-dasharray: none; stroke-linecap: butt; stroke-linejoin: miter; stroke-miterlimit: 10; fill: rgb(23,55,93); fill-rule: nonzero; opacity: 1;" transform=" matrix(1 0 0 1 0 0) " stroke-linecap="round" />
</g>
</g>
</svg>